<?xml version="1.0" standalone="no"?><!DOCTYPE svg PUBLIC "-//W3C//DTD SVG 1.1//EN" "http://www.w3.org/Graphics/SVG/1.1/DTD/svg11.dtd"><svg class="icon" width="256px" height="182.42px" viewBox="0 0 1437 1024" version="1.1" xmlns="http://www.w3.org/2000/svg"><path d="M112.379609 337.683409h95.760777V308.108316H112.379609z" fill="#597EF7" /><path d="M112.379609 378.139424h95.760777V349.214585H112.379609z" fill="#AAC2FE" /><path d="M112.379609 419.258443h95.760777V390.325954H112.379609z" fill="#FF7946" /><path d="M112.379609 460.377462h95.760777V431.444973H112.379609z" fill="#AAC2FE" /><path d="M20.426007 576.637823h737.299074V34.287524H20.426007z" fill="#E4F7F0" /><path d="M258.230363 527.978405h439.240374V127.837436H258.230363z" fill="#4E5C93" /><path d="M312.140266 274.965749H624.54281V248.017173H312.140266z" fill="#FFFFFF" /><path d="M312.140266 341.378384h160.199698V314.429807H312.140266z" fill="#E4EBF7" /><path d="M442.140117 208.548015h160.207348V181.599438H442.140117z" fill="#E4EBF7" /><path d="M312.140266 471.046732h287.037528V444.098156H312.140266z" fill="#FFFFFF" /><path d="M312.140266 208.548015h99.955554V181.599438H312.142816z" fill="#FFFFFF" /><path d="M496.055119 341.378384h52.390093V314.429807H496.055119z" fill="#E4EBF7" /><path d="M312.140266 404.631547h233.125075V377.682971h-233.122525z" fill="#E4EBF7" /><path d="M20.426007 91.565999h736.929322V7.6526H20.428557z" fill="#2F2F41" /><path d="M48.958144 68.167046h35.878735V32.956416h-35.878735z" fill="#FF7946" /><path d="M102.857847 68.167046h35.881284V32.956416h-35.878734z" fill="#FFC53D" /><path d="M153.592979 68.167046h35.881284V32.956416h-35.878734z" fill="#BAE637" /><path d="M77.497931 527.970754h166.541589V121.508295h-166.541589z" fill="#FFFFFF" /><path d="M112.379609 337.683409h95.760777V308.108316H112.379609z" fill="#3BA000" /><path d="M112.379609 378.139424h95.760777V349.214585H112.379609z" fill="#E5F5F1" /><path d="M112.379609 419.258443h95.760777V390.325954H112.379609z" fill="#FF7946" /><path d="M112.379609 460.377462h95.760777V431.444973H112.379609z" fill="#E5F5F1" /><path d="M115.962382 259.326497h86.404766V172.253627H115.962382z" fill="#3BA000" /><path d="M125.858997 259.326497h66.598786V219.757888H125.858997z" fill="#FFFFFF" /><path d="M140.626144 229.30515h37.490345V191.575103H140.626144z" fill="#FFFFFF" /><path d="M1242.126251 878.649049h-23.090401a6.308741 6.308741 0 0 1-6.308741-6.301091v-23.098051a6.303641 6.303641 0 0 1 6.308741-6.301092h23.090401a6.298541 6.298541 0 0 1 6.301091 6.301092v23.098051a6.303641 6.303641 0 0 1-6.301091 6.301091" fill="#DFE3EF" /><path d="M555.434808 839.786795h70.176459V769.617986H555.434808z" fill="#FF7946" /><path d="M1268.615824 766.455965c29.424643-8.932708 46.678055-39.040755 39.316157-68.610749L1241.251595 430.050114c-9.802264-39.395208-51.071734-62.528959-90.26804-50.625481-38.739853 11.763227-59.823391 53.040347-46.415404 90.867294l92.244303 260.272553c10.309717 29.10079 42.014075 44.936394 71.80337 35.888935M825.616726 684.105726L876.124906 557.471898 777.684062 501.24658s-98.048142 174.660843-77.135455 213.242595c30.661401 56.57467 89.316884 64.030919 125.068119-30.383449" fill="#FFC999" /><path d="M1133.918843 728.491316s27.264778-138.491406 39.377358-189.66769c12.122779-51.178835 43.350284-170.256964 21.891893-179.306974-21.45839-9.050009-85.866712-31.622757-85.866712-31.622757s-40.820667-1.224008-86.687817 8.670057c-36.317338 7.823451-36.149037-13.311087-80.190375-5.890538-18.645722 3.146721-91.591499 26.086671-105.703292 37.161393-14.119442 11.084923 14.007242 369.563718 14.007242 369.563718s-17.340113 17.765966 3.929576 40.586065c10.534119 10.68712 55.870866 6.800894 113.944945 6.642794 66.101533-0.191251 143.897442 7.58885 158.248936-4.896032 26.974076-23.429553 7.048246-51.240035 7.048246-51.240036" fill="#289A6B" /><path d="M961.201113 304.895295L1003.62574 340.220676 956.376481 389.045846 932.225273 331.180867zM834.605535 656.797597s67.366341-120.585189 71.88497-190.389345c4.426829-68.457748-55.312412-119.006729-85.57856-88.850232-44.089788 43.936787-90.13799 190.154744-90.13799 190.154745s50.872833 64.829074 103.83158 89.084832" fill="#289A6B" /><path d="M835.702042 613.447314a2.124164 2.124164 0 0 1-0.790505-0.153001c-0.481953-0.193801-48.072915-19.999781-83.352396-72.802977a2.317965 2.317965 0 0 1 0.550804-3.14162 2.108864 2.108864 0 0 1 3.016669 0.573754c34.534876 51.691388 80.901829 70.982264 81.365933 71.165865 1.116907 0.459003 1.667711 1.764612 1.234208 2.924869a2.175164 2.175164 0 0 1-2.024713 1.43311" fill="#1C573E" /><path d="M835.707142 651.697564a2.175164 2.175164 0 0 1-0.856806-0.173401c-0.471753-0.204001-48.029564-21.228889-83.291195-72.866727a2.223615 2.223615 0 0 1 0.550804-3.06512 2.142014 2.142014 0 0 1 3.016669 0.550804c34.557826 50.607631 80.96558 71.125065 81.432233 71.323966a2.210864 2.210864 0 0 1 1.139858 2.891719 2.159864 2.159864 0 0 1-1.994113 1.338759" fill="#1D39C4" /><path d="M1289.227609 610.943197s-34.858728-185.743215-67.922244-229.34085c-30.222798-39.841461-59.053286-31.418756-81.337883-12.099829-14.017442 12.15593-48.169815 48.062714-15.588252 149.617129 24.531161 76.47755 35.279481 107.858056 37.464846 120.131286C1230.449724 651.299761 1289.227609 610.945747 1289.227609 610.945747" fill="#289A6B" /><path d="M1004.258145 345.695562L962.825473 305.6399 968.48396 167.194394l110.606974 4.878182L1085.226274 308.518869zM939.283719 153.722656s-16.490958-17.169262-23.115901-5.293835c-6.630043 11.877978 6.012939 53.677851 23.595305 54.450506 23.480554 1.030207-0.479403-49.156672-0.479404-49.156671" fill="#FFC999" /><path d="M1049.242989 260.471454s-35.320281 29.949946-83.273345 1.683011c-34.517026-20.349133-40.019962-96.041278-34.379325-151.769343 3.195171-31.528406 17.416614-48.705319 47.945414-58.535633 30.53135-9.830314 113.725644-11.536275 115.809008 81.052281 2.333265 103.137975-46.104302 127.569685-46.104302 127.569684" fill="#FFC999" /><path d="M979.813685 195.244577a1.693211 1.693211 0 0 1-1.292859-0.586503 1.637111 1.637111 0 0 1-0.369752-1.359159l9.516662-51.275736-5.176534-18.655922a1.644761 1.644761 0 0 1 1.180658-2.014513 1.685561 1.685561 0 0 1 2.070613 1.160258l5.270885 19.007824c0.0714 0.234602 0.079051 0.484503 0.0306 0.729305l-9.21066 49.684525 20.099231-0.158101h0.00765a1.657511 1.657511 0 0 1 1.685561 1.63201 1.665161 1.665161 0 0 1-1.667711 1.662611l-22.136694 0.173401h-0.00765z" fill="#DD936F" /><path d="M1044.298507 128.944144c-8.677707 0-20.262433-1.173008-30.857752-2.249115l-8.032553-0.800705c-2.623967-0.242252-4.55943-2.613767-4.309528-5.291285 0.237152-2.664767 2.539817-4.64613 5.189284-4.386029l8.098853 0.798156c12.931135 1.313259 30.6257 3.11102 37.013492 1.703411 2.565317-0.573754 5.112783 1.104157 5.668687 3.728124 0.553354 2.623967-1.083757 5.212234-3.666924 5.775788-2.325615 0.512553-5.457036 0.721655-9.103559 0.721655" fill="#090D33" /><path d="M973.02554 208.813216c18.831873-0.408003 43.350284-0.818555 43.350284-0.818555s-0.221851 15.3001-21.817943 15.3001c-16.503708 0-21.532341-14.481545-21.532341-14.481545" fill="#FFFFFF" /><path d="M976.164611 208.685715c2.238915 4.508429 7.64495 12.24773 18.39582 12.247731 14.642196 0 18.487621-8.634356 19.499978-13.071386-6.400542 0.122401-23.251052 0.464103-37.893248 0.823655M994.557881 225.844778c-18.161219 0-23.919157-18.579422-23.975257-18.773223a2.646917 2.646917 0 0 1 0.306002-2.175164 2.218515 2.218515 0 0 1 1.785012-1.035307c19.089425-0.484503 43.954638-0.963906 43.954637-0.963906 0.561004-0.0255 1.198508 0.255002 1.626911 0.719104 0.433503 0.464103 0.675754 1.104157 0.668104 1.772262-0.00765 0.201451-0.532953 20.456234-24.365409 20.456234" fill="#FF7A45" /><path d="M1084.417919 172.294427l17.100412-35.865984s10.319918-51.459337-1.754412-73.28748c-18.742623-33.876972-60.244144-32.209261-85.043056-40.884417-24.798912-8.680257-24.719862-17.105512-34.685327-15.519402-9.975665 1.58101-48.192765 29.677094-52.03054 58.408132-3.381322 25.252815 4.074927 89.311784 4.074926 89.311785s5.969589-56.957173 11.102773-72.060922c19.375027-8.631806 90.326691-10.332668 120.108336-1.60141 0 0 2.907019 19.295976 4.63848 32.890115C1083.984416 124.917667 1084.417919 172.294427 1084.417919 172.294427" fill="#253368" /><path d="M1001.848379 274.295095c-25.686318 0-38.520552-13.096886-38.693953-13.277937a1.198508 1.198508 0 1 1 1.744211-1.652411c0.229502 0.244802 24.146108 24.50311 72.777476 4.878182a1.198508 1.198508 0 1 1 0.900156 2.218514c-14.285193 5.763038-26.520174 7.833651-36.72789 7.833652" fill="#DD936F" /><path d="M1000.272468 149.344277h-0.0816l-16.243606-0.413103c-1.846212-0.04335-3.317572-1.695761-3.271672-3.692424 0.0408-1.986463 1.257158-3.740874 3.434873-3.526673l16.243606 0.413103c1.853862 0.04335 3.317572 1.695761 3.271671 3.692424-0.0408 1.960963-1.53001 3.526673-3.353272 3.526673" fill="#090D33" /><path d="M1000.45862 159.544344c-0.581404 0-1.170458-0.216751-1.695761-0.678305-0.084151-0.0714-8.254404-7.030396-12.655733-0.854255-1.224008 1.708511-3.225771 1.739111-4.47783 0.07395-1.249508-1.665161-1.275008-4.391129-0.051-6.09454 8.001952-11.227723 20.083931-0.833855 20.596485-0.382502 1.46371 1.285208 1.892112 3.937226 0.951156 5.941539-0.604354 1.295408-1.621811 1.994113-2.667317 1.994113M981.305444 128.944144c-0.726755 0-1.46116-0.168301-2.144564-0.530404-0.232052-0.124951-23.031751-11.974878-37.403644-2.478616-2.032363 1.338759-4.809331 0.846606-6.204191-1.122007a4.207528 4.207528 0 0 1 1.165358-5.982339c18.931324-12.497632 45.622349 1.440759 46.746905 2.032363 2.162414 1.147508 2.942719 3.763825 1.754412 5.849738a4.493129 4.493129 0 0 1-3.914276 2.231265" fill="#090D33" /><path d="M999.887416 236.044844h-0.00765l-12.923485-0.270301c-0.657904-0.0153-1.188308-1.106707-1.180657-2.437816 0.00765-1.315809 0.538054-2.391916 1.195957-2.391916h0.00765l12.915835 0.270302c0.657904 0.0153 1.188308 1.106707 1.180658 2.437816-0.00765 1.331109-0.538054 2.391916-1.188308 2.391915" fill="#DD936F" /><path d="M1086.985786 149.344277h-0.0153l-26.469173-0.142801c-1.846212-0.0102-3.332872-1.700861-3.325222-3.766374 0.00765-2.065514 1.50451-3.740874 3.340522-3.740875h0.0153l26.469173 0.135151c1.846212 0.01785 3.332872 1.698311 3.325222 3.774025-0.0153 2.065514-1.50451 3.740874-3.340522 3.740874" fill="#090D33" /><path d="M1058.236898 142.214431L1007.529816 141.694227a6.369942 6.369942 0 0 0-6.451542 6.341892c-0.01785 6.612193 0.244802 17.217713 1.864062 26.305972 1.922713 10.72537 11.475075 17.375814 22.338146 17.992917 13.571189 0.772655 25.760269 0.910356 31.992509-6.086889 9.501362-10.65142 7.387398-28.374036 7.282848-37.740247a6.408192 6.408192 0 0 0-6.318941-6.293441" fill="#FFEDE1" /><path d="M1006.063556 138.950409c-1.412709 0-2.728518 0.563554-3.728124 1.598861-1.002157 1.035307-1.55551 2.432716-1.56316 3.914275-0.0255 7.438399 0.280502 18.253019 1.861512 27.51213 1.721261 10.105716 10.314817 17.335013 21.39464 17.992918 13.611989 0.816005 25.354816 0.907806 31.255554-6.025689 7.991752-9.401912 7.479199-24.592361 7.140047-34.649627a190.506646 190.506646 0 0 1-0.117301-4.335029c-0.03315-2.978419-2.381716-5.426436-5.235184-5.459585l-50.951883-0.548254h-0.056101M1034.271841 192.694561c-3.294622 0-6.765194-0.160651-10.365818-0.379953-12.143179-0.721655-21.578241-8.726157-23.485654-19.92838-1.59631-9.424862-1.909962-20.389933-1.894662-27.930333a8.022352 8.022352 0 0 1 2.238915-5.581986 7.298148 7.298148 0 0 1 5.298934-2.279715h0.079051l50.951883 0.548253c4.064727 0.051 7.415449 3.541973 7.456249 7.792851 0.0153 1.287758 0.06375 2.725968 0.119851 4.284028 0.344252 10.427018 0.874656 26.188671-7.711251 36.296938-4.898582 5.755388-12.987235 7.178297-22.687498 7.178297" fill="#253368" /><path d="M980.905092 137.231698L922.894762 136.594194c-2.241465 9.027059-0.507453 44.038788 9.376412 51.658238 13.272837 7.59905 40.239263 4.663981 44.497791-2.884069 6.466842-11.454675 9.029609-33.420519 9.006659-42.886181 0-2.884069-2.167514-5.227534-4.870532-5.253034" fill="#FFEDE1" /><path d="M922.349059 138.909609c-1.790112 9.340711-0.03315 40.611566 9.18771 47.38696 12.571582 6.851895 39.081556 4.319728 43.082532-2.422516 6.311291-10.68457 8.904658-31.640607 8.879158-40.478965 0-2.152214-1.660061-3.858175-3.766375-3.883675l-57.383025-0.601804zM951.505949 192.694561c-7.63985 0-15.488801-1.343859-21.167688-4.452329-10.549419-7.731651-12.24008-42.110976-9.990965-50.791233a1.147508 1.147508 0 0 1 1.101607-0.856805h0.0102l58.288281 0.612004c3.315022 0.0306 6.012939 2.810118 6.02824 6.18124 0.0153 8.144753-2.284815 29.949946-9.220861 41.672373-2.746368 4.65123-13.68339 7.63475-25.048814 7.63475z" fill="#96A7CA" /><path d="M1001.96568 144.244244c-1.874262 0-3.406822-1.45606-3.439973-3.271672-0.0255-1.836012 1.49176-3.348172 3.381322-3.381322L1066.437751 136.594194h0.048451c1.874262 0 3.406822 1.45606 3.439972 3.271671 0.0306 1.836012-1.48411 3.348172-3.383872 3.381322L1002.02178 144.244244h-0.0561zM987.379584 144.244244h-0.08415l-64.398122-1.397409c-1.938013-0.0459-3.470573-1.47391-3.422122-3.200271 0.051-1.726361 1.861512-3.184971 3.587873-3.04217l64.398122 1.397409c1.938013 0.03825 3.462923 1.46626 3.414472 3.192621-0.04335 1.695761-1.60396 3.04982-3.496073 3.04982" fill="#253368" /><path d="M1090.71391 142.928435c6.293441-7.168097 17.217713-9.024509 24.969764-1.51981 12.495082 12.092179 2.708118 58.637634-29.896396 61.486003-10.863071-1.53511-4.345228-49.409123 4.926632-59.966193" fill="#FFC999" /><path d="M968.239159 167.194394h-0.0255a2.249115 2.249115 0 0 1-2.210865-2.284815c0.0459-4.64613-3.06002-8.466055-6.918195-8.504306h-0.0561c-3.835225 0-6.981946 3.735774-7.030396 8.369155-0.0153 1.241858-0.861906 2.024713-2.259315 2.233815a2.256765 2.256765 0 0 1-2.213415-2.282265c0.0714-7.140047 5.329535-12.887784 11.607676-12.831684 6.324041 0.06375 11.413875 5.923689 11.342474 13.063735a2.254215 2.254215 0 0 1-2.236364 2.236365M1037.089609 167.194394h-0.0255a2.249115 2.249115 0 0 1-2.210864-2.284815c0.0459-4.64613-3.06002-8.466055-6.918196-8.504306h-0.0561c-3.842875 0-6.989596 3.735774-7.038046 8.369155-0.00765 1.241858-1.109257 2.024713-2.251665 2.233815a2.244015 2.244015 0 0 1-2.213414-2.282265c0.0714-7.101796 5.217334-12.831684 11.500575-12.831684h0.107101c6.324041 0.06375 11.413875 5.923689 11.342474 13.063735a2.254215 2.254215 0 0 1-2.236365 2.236365" fill="#090D33" /><path d="M804.724439 677.674584s-19.339327 71.663119-83.324345 59.287888c-43.699636-8.448205-88.868081-233.099575-92.540106-259.209196-2.626517-18.661022 54.238855-22.406997 54.238855-22.406997L804.724439 677.674584z" fill="#FFC999" /><path d="M684.873655 458.722501s-2.340915-5.349935-7.035496-30.454849c-4.692031-25.104914-52.979147-86.506766-56.100367-89.232734-10.63357-9.307561-19.035875 3.967826 3.723024 37.617846-27.56823-7.815801-44.773193-20.527634-54.493856-38.166099-9.723214-17.646115-28.853439-4.913882-22.542148 23.554504 6.293441 28.458186 7.6067 51.551137 26.061171 72.514824 26.423273 30.023896 48.297316 39.78026 60.621546 44.921094 10.021566 4.182027 42.118626-0.795605 49.766126-20.757136" fill="#FFC999" /><path d="M1127.174049 810.306052s-158.465687-25.658268-274.432796-5.584537c-2.052763 12.974485-27.093927 101.210162-31.176504 165.496083 0 0 148.910774 3.577673 311.089286-36.63609 9.894065-2.453116 23.470354-5.390735 21.338539-14.644745l-26.815975-108.630711z" fill="#B4B4B4" /><path d="M1127.709552 780.407106s-148.971975-20.650035-272.578933 1.106707c-0.966456 10.69222-1.955863 23.847756-1.955863 23.847756s99.986154-24.46741 275.401802 6.987046c-0.642604-28.99369-0.867006-31.941509-0.867006-31.941509" fill="#B4B4B4" /><path d="M1124.34098 817.448649c-0.04845 0-0.096901 0-0.153001-0.010201-1.382109-0.168301-140.447269-16.993311-266.632294-1.56571-0.948606 0.099451-1.734011-0.833855-1.823262-2.111414-0.081601-1.287758 0.601804-2.409766 1.52491-2.532166 126.506328-15.481151 265.846889 1.399959 267.236648 1.56571 0.923106 0.112201 1.606511 1.244408 1.52491 2.532167-0.079051 1.211258-0.810905 2.121614-1.677911 2.121614M1126.327443 786.848448c-0.096901 0-0.186151 0-0.280502-0.01785-1.50196-0.219301-151.590842-21.43544-270.294118-1.417809-1.241858 0.255002-2.376616-0.800705-2.555117-2.236365-0.178501-1.443309 0.678304-2.784618 1.912513-2.991169 119.312731-20.114532 269.983016 1.178108 271.490076 1.397409 1.234208 0.178501 2.111414 1.49941 1.958413 2.942719-0.137701 1.341309-1.111807 2.323065-2.231265 2.323065" fill="#6A6A6A" /><path d="M976.493563 960.249583a1.639661 1.639661 0 0 1-1.611611-1.45861c-8.897008-73.879083-1.58101-177.029808-1.51216-178.060015a1.626911 1.626911 0 0 1 1.744212-1.53256c0.900156 0.076501 1.56571 0.861906 1.50451 1.774812-0.076501 1.032757-7.369548 103.85963 1.494309 177.425061a1.657511 1.657511 0 0 1-1.417809 1.843662c-0.0612 0.00765-0.132601 0.00765-0.201451 0.00765" fill="#6A6A6A" /><path d="M947.525373 789.334715c-0.04335 4.225378 2.764218 7.68065 6.283241 7.7138 3.519023 0.0408 6.413292-3.360922 6.466843-7.5863 0.04335-4.225378-2.774418-7.68065-6.283241-7.7138-3.529223-0.0408-6.413292 3.360922-6.466843 7.5863" fill="#FFFFFF" /><path d="M650.58613 447.696229a1.150058 1.150058 0 0 1-0.395252-0.0714c-17.113162-6.492342-17.268713-50.862633-17.245763-54.891659l-6.645343-17.391114a1.178108 1.178108 0 0 1 0.642604-1.50961 1.116907 1.116907 0 0 1 1.468809 0.657904l6.724394 17.600215a1.088857 1.088857 0 0 1 0.076501 0.433503c0 0.471753-0.293252 46.820856 15.769303 52.915396a1.173008 1.173008 0 0 1 0.670654 1.49431 1.142407 1.142407 0 0 1-1.065907 0.762455M599.555197 422.196062a1.185758 1.185758 0 0 1-0.326403-0.0459c-22.763999-6.431142-32.668264-25.849519-33.083916-26.673174-1.249508-1.759512-5.457036-6.703994-8.797558-6.703994h-0.0051c-1.124557 0-2.091014 0.591604-2.940169 1.813062a1.190858 1.190858 0 0 1-1.61926 0.295802 1.122007 1.122007 0 0 1-0.311102-1.581011c1.308159-1.864062 2.940169-2.805018 4.870531-2.805018h0.00765c5.161234 0 10.245967 7.038046 10.812071 7.846401 0.183601 0.334052 9.975665 19.479577 31.719658 25.622568a1.129657 1.129657 0 0 1 0.795605 1.407609 1.178108 1.178108 0 0 1-1.122007 0.823655M599.552647 404.345946h-0.117301c-0.583954-0.0612-14.537645-1.683011-34.422675-27.091378-2.389366-2.782068-7.338948-6.999796-10.113367-6.324041-1.354059 0.323852-2.320515 1.848762-2.861118 4.52628-0.127501 0.599254-0.757355 0.956256-1.369359 0.879755a1.122007 1.122007 0 0 1-0.925656-1.303058c0.734405-3.595524 2.269515-5.704387 4.59003-6.260291 5.227534-1.190858 11.788727 6.260291 12.520582 7.117096 19.191426 24.51841 32.691214 26.224372 32.826364 26.239672 0.637504 0.06885 1.101607 0.614554 1.037857 1.224008a1.157708 1.157708 0 0 1-1.165357 0.991957M604.62463 389.045846a1.147508 1.147508 0 0 1-0.390153-0.061201c-0.484503-0.158101-11.977428-4.054527-26.03312-17.753216-3.965276-3.860725-7.407798-7.884652-10.449969-11.431725-5.541186-6.489792-9.932315-11.607676-13.923091-11.816777-1.619261-0.03825-3.04982 0.591604-4.61808 2.065513a1.241858 1.241858 0 0 1-1.693211-0.02295 1.101607 1.101607 0 0 1 0.0153-1.61416c2.085914-1.940563 4.235578-2.761668 6.426042-2.713218 5.054133 0.272852 9.730864 5.732438 15.649453 12.648083 3.00902 3.519023 6.418392 7.504699 10.302067 11.286373 13.622189 13.275387 24.995264 17.151412 25.107464 17.189663a1.122007 1.122007 0 0 1 0.736955 1.453509 1.188308 1.188308 0 0 1-1.127107 0.770106" fill="#DD936F" /><path d="M787.680127 641.497497a1.772262 1.772262 0 0 1-1.509609-0.841505l-52.611945-88.403979a1.683011 1.683011 0 0 1 0.629854-2.325615 1.772262 1.772262 0 0 1 2.381716 0.622204l52.619594 88.403979a1.672811 1.672811 0 0 1-0.637504 2.320515 1.772262 1.772262 0 0 1-0.872106 0.224401" fill="#E2A688" /><path d="M1001.075724 345.942913L1042.304393 399.245912 1103.076391 327.498643 1080.529144 299.795262z" fill="#289A6B" /><path d="M1145.76367 570.09703a4.408979 4.408979 0 0 1-3.796974-2.162414 4.51863 4.51863 0 0 1 1.499409-6.16084c65.142726-39.78026 118.106573-47.42521 120.335288-47.736313a4.424279 4.424279 0 0 1 4.985282 3.837775c0.331502 2.458216-1.364259 4.717531-3.789324 5.054134-0.522753 0.07395-53.4866 7.764801-116.943766 46.519954a4.360529 4.360529 0 0 1-2.289915 0.647704M1135.673254 513.996663c-1.162808 0-2.333265-0.456453-3.218121-1.361709a4.717531 4.717531 0 0 1 0-6.563743c42.024275-42.914231 107.406703-62.483059 110.170921-63.296514a4.52883 4.52883 0 0 1 5.625337 3.179871c0.688505 2.463316-0.701255 5.036283-3.11357 5.742637-0.650254 0.198901-65.923031 19.760079-106.246446 60.937749a4.500779 4.500779 0 0 1-3.218121 1.361709M778.609718 559.896963a4.480379 4.480379 0 0 1-4.393679-5.380535c21.198289-103.543427 57.408526-166.58239 57.775728-167.207144 0.377402-0.647704 0.905256-1.185758 1.545311-1.57591 29.136491-17.720066 69.684306-33.030366 103.676028-39.183557l33.425619-30.294198a4.477829 4.477829 0 1 1 6.018039 6.635144l-34.384425 31.156104c-0.624754 0.576304-1.402509 0.953706-2.233815 1.096507-32.344412 5.666137-72.700976 20.736736-100.85316 37.638246-4.57728 8.269704-36.73809 68.493448-56.189617 163.53767a4.488029 4.488029 0 0 1-4.386029 3.577673" fill="#62C099" /><path d="M1254.16488 587.947147a4.457429 4.457429 0 0 1-4.271278-3.151821c-14.823247-49.008771-56.013666-179.686926-68.462848-195.66278-12.000379-15.402101-70.844564-28.379136-92.496755-32.08431a4.442129 4.442129 0 0 1-3.643974-5.122983 4.480379 4.480379 0 0 1 5.156133-3.618474c8.313054 1.428009 81.748435 14.504495 98.030292 35.399332 16.021755 20.537834 67.769243 191.279302 69.962258 198.531549A4.437029 4.437029 0 0 1 1254.16488 587.947147M1192.959379 608.34728a4.449779 4.449779 0 0 1-4.324828-3.353272c-14.081192-55.804565-40.744167-147.441965-52.392643-155.803469-79.361619-56.895972-242.368886-38.13295-294.667178-4.437029l-28.004283 140.822121c-0.471753 2.397016-2.815218 3.944876-5.242834 3.485873a4.426829 4.426829 0 0 1-3.519023-5.202034l28.356185-142.624983c0.232052-1.139857 0.902706-2.136914 1.866612-2.792268 52.354393-35.508982 223.524263-55.875966 306.443155 3.575123 17.737916 12.724583 49.610575 136.201491 55.819866 160.832102a4.419179 4.419179 0 0 1-3.248722 5.362686c-0.359552 0.094351-0.726755 0.135151-1.086307 0.13515" fill="#62C099" /><path d="M850.017835 516.54668a4.482929 4.482929 0 0 1-4.215177-2.914669 4.424279 4.424279 0 0 1 2.664767-5.701838c160.694401-58.295931 288.88629-4.421729 290.168949-3.865825a4.419179 4.419179 0 0 1 2.312865 5.844638 4.52118 4.52118 0 0 1-5.908389 2.302665c-1.244408-0.540604-126.312526-52.945996-283.475155 4.064727a4.61553 4.61553 0 0 1-1.54786 0.270302M1147.074379 593.04718c-0.476853 0-0.953706-0.076501-1.433109-0.239701-1.48666-0.527853-150.670286-51.727088-294.254076-1.996663-2.330715 0.808355-4.852682-0.494703-5.632987-2.914669-0.777755-2.417416 0.484503-5.033733 2.817769-5.842089 146.493359-50.737682 298.423353 1.46881 299.932962 1.996663 2.325615 0.826205 3.572573 3.442523 2.784619 5.859939a4.472729 4.472729 0 0 1-4.215178 3.13652M1139.398829 659.347614a4.411529 4.411529 0 0 1-1.009807-0.109651c-1.410159-0.313652-142.14048-31.395805-284.857264-0.1173-2.394466 0.502353-4.804231-0.966456-5.349935-3.337972-0.535504-2.363865 0.976656-4.709881 3.396623-5.242835 144.764447-31.734958 287.39453-0.188701 288.819989 0.132601 2.419966 0.548254 3.916826 2.904469 3.366022 5.268335a4.465079 4.465079 0 0 1-4.365628 3.406822" fill="#62C099" /><path d="M1079.835539 774.098365c-2.279715 0-4.197327-1.818162-4.355428-4.182027-1.925263-29.376192 2.218515-86.708217 13.430937-185.901317 21.598641-191.10335 56.278868-227.920491 57.745128-229.386751a4.284028 4.284028 0 0 1 6.171041 0.063751 4.57473 4.57473 0 0 1-0.030601 6.313841c-0.522753 0.553354-34.208474 38.2375-55.215511 224.041916-11.143573 98.634645-15.27205 155.461767-13.382487 184.264206 0.163201 2.470966-1.657511 4.61043-4.067277 4.778731-0.102001 0.00765-0.193801 0.00765-0.295802 0.00765M1020.863853 768.998332h-0.178501a4.475279 4.475279 0 0 1-4.306978-4.635931c0.0561-1.438209 5.671237-144.802697 17.681816-233.316326 14.027642-103.403177 32.267911-156.282873 36.536639-167.712048l-25.94387-36.064886a4.459979 4.459979 0 0 1 1.032757-6.23224 4.470179 4.470179 0 0 1 6.24754 1.030206l27.351479 38.020749c0.895056 1.234208 1.088857 2.856019 0.520204 4.268728-0.216751 0.525303-21.38699 53.795152-36.865591 167.887998-11.946828 88.090326-17.551765 231.023862-17.600216 232.459521A4.480379 4.480379 0 0 1 1020.863853 768.998332M909.282773 766.448315a4.462529 4.462529 0 0 1-4.396229-3.766375c-14.580995-91.242147-8.455855-368.877764 5.829338-421.346907a4.467629 4.467629 0 0 1 5.472336-3.13652 4.472729 4.472729 0 0 1 3.128871 5.495286c-13.624739 50.038977-19.788129 328.977652-5.630437 417.572882a4.467629 4.467629 0 0 1-4.403879 5.181634M835.967243 501.24658a4.462529 4.462529 0 0 1-3.661824-1.871713c-23.949757-33.68317-48.162165-48.516617-48.399316-48.664518a4.335028 4.335028 0 0 1-1.46881-6.030789 4.51353 4.51353 0 0 1 6.14044-1.43311c1.045507 0.637504 26.04842 15.952904 51.041134 51.107435 1.412709 1.989013 0.918006 4.717531-1.099057 6.102189a4.51353 4.51353 0 0 1-2.552567 0.790506M836.015694 567.547013a4.355428 4.355428 0 0 1-3.516473-1.797761c-33.532719-45.479548-63.928918-68.79945-64.227271-69.028952-1.963513-1.48666-2.381716-4.342678-0.938406-6.367392a4.314628 4.314628 0 0 1 6.171041-0.961356c1.280108 0.969006 31.722208 24.337359 66.019932 70.849664 1.47646 2.001763 1.096507 4.857782-0.841506 6.377591-0.798155 0.627304-1.734011 0.928206-2.667317 0.928206" fill="#62C099" /><path d="M860.202602 728.198065c-1.887012 0-3.638874-1.239308-4.255978-3.190071-0.765005-2.430166 0.512553-5.043933 2.863669-5.839539 82.212538-27.731431 255.950275-5.627887 263.301973-4.67673 2.455666 0.323852 4.189677 2.636717 3.876025 5.166334-0.300902 2.529617-2.460766 4.340128-4.998033 4.018826-1.767162-0.239702-179.087672-22.817549-259.395347 4.296778a4.53393 4.53393 0 0 1-1.392309 0.224402" fill="#ADC6FF" /><path d="M976.10086 768.998332a2.200664 2.200664 0 0 1-2.175164-2.052764c-1.917613-24.365409-5.885439-91.020296-1.377009-183.626701 8.820508-181.051185 26.099421-231.541515 26.826176-233.599379a2.182814 2.182814 0 0 1 2.810118-1.341309 2.244015 2.244015 0 0 1 1.308159 2.856019c-0.173401 0.504903-17.799116 52.239642-26.571174 232.30652-4.490579 92.346304-0.538054 158.774239 1.361709 183.045298a2.210864 2.210864 0 0 1-2.001764 2.404665c-0.06375 0.00765-0.117301 0.00765-0.178501 0.007651" fill="#1C573E" /><path d="M1028.417003 383.945812c-1.091407 0-2.190464-0.423303-3.03707-1.269908a4.681831 4.681831 0 0 1-0.132601-6.446442l57.518176-62.279058a4.268728 4.268728 0 0 1 6.206741-0.130051c1.749311 1.734011 1.813062 4.61808 0.132601 6.443892l-57.518177 62.279058c-0.864456 0.930756-2.014513 1.402509-3.16967 1.402509M976.460413 376.295762c-1.384659 0-2.743818-0.749705-3.549624-2.134364l-27.259678-46.772406c-1.267358-2.170064-0.701255-5.056683 1.259708-6.451542 1.958413-1.389759 4.56708-0.772655 5.826788 1.394859l27.267329 46.764756c1.259708 2.167514 0.693605 5.054133-1.259708 6.456642a3.942326 3.942326 0 0 1-2.284815 0.742055" fill="#62C099" /><path d="M856.005275 779.198398a2.277165 2.277165 0 0 1-1.606511-0.650254c-18.553921-18.168869-7.170647-36.65394-4.317178-40.649816-17.740466-162.03316-10.812071-280.851188-10.309718-288.88374-8.129453-25.237515-6.961546-66.274934-6.910545-68.016595 0.03825-1.231658 1.086307-2.111414 2.333265-2.152214a2.244015 2.244015 0 0 1 2.208315 2.287365c-0.01785 0.420753-1.208708 42.460328 6.821294 66.920088a2.208314 2.208314 0 0 1 0.107101 0.826205c-0.089251 1.208708-8.007052 122.362551 10.360718 289.401394a2.198114 2.198114 0 0 1-0.494703 1.63456c-0.601804 0.724205-14.491745 17.952117 3.414472 35.486032a2.195564 2.195564 0 0 1 0 3.146721 2.277165 2.277165 0 0 1-1.60651 0.650254M867.212598 504.3984l33.101766 22.537048 42.924431-24.523511 4.758331-80.713128c-11.334824 0.290702-59.690791 2.091014-82.62819 12.061579-0.408003 42.455228 1.394859 65.629779 1.843662 70.638012M900.220014 531.84678a2.277165 2.277165 0 0 1-1.259708-0.379953l-35.13923-23.919156a2.244015 2.244015 0 0 1-0.969007-1.639661c-0.02295-0.232052-2.481166-24.255759-1.953312-73.644482a2.261865 2.261865 0 0 1 1.300508-2.027263c26.114721-12.23753 85.63976-13.076486 88.154077-13.109636 0.826205-0.145351 1.224008 0.249902 1.649861 0.703805a2.244015 2.244015 0 0 1 0.617104 1.695761l-4.972533 84.380052a2.279715 2.279715 0 0 1-1.139857 1.841112l-45.183746 25.808719a2.261865 2.261865 0 0 1-1.104157 0.290702M1156.295239 615.99733a2.236365 2.236365 0 0 1-0.127501-4.470179c64.293571-3.886225 121.475145-38.20435 122.038699-38.556252a2.218515 2.218515 0 0 1 3.05492 0.759905 2.256765 2.256765 0 0 1-0.762455 3.07787c-0.571204 0.351902-58.650384 35.231031-124.068512 39.188656h-0.135151" fill="#1C573E" /><path d="M998.525707 383.876962c-0.04845 4.222828 2.774418 7.6781 6.293441 7.7189 3.519023 0.03315 6.408192-3.358372 6.456642-7.581199 0.0408-4.222828-2.774418-7.68575-6.293441-7.718901-3.519023-0.0408-6.415842 3.358372-6.456642 7.5812M990.875657 462.927479c-0.0408 4.222828 2.774418 7.6781 6.293441 7.7189 3.519023 0.03315 6.408192-3.358372 6.456642-7.581199 0.04845-4.222828-2.774418-7.68575-6.293441-7.718901-3.519023-0.0408-6.408192 3.358372-6.456642 7.5812M985.775624 544.528013c-0.04845 4.222828 2.766768 7.6781 6.285791 7.7189 3.526673 0.03315 6.415842-3.358372 6.464292-7.581199 0.0408-4.222828-2.774418-7.6781-6.293441-7.718901-3.519023-0.03315-6.415842 3.358372-6.456642 7.5812M985.775624 623.57853c-0.04845 4.222828 2.774418 7.6781 6.293441 7.718901 3.519023 0.03315 6.408192-3.358372 6.456642-7.5812 0.0408-4.222828-2.774418-7.68575-6.293441-7.718901-3.519023-0.0408-6.415842 3.358372-6.456642 7.5812M985.775624 725.579197c-0.0408 4.222828 2.774418 7.6781 6.293441 7.718901 3.519023 0.03315 6.408192-3.358372 6.456642-7.5812 0.04845-4.222828-2.774418-7.6781-6.293441-7.7189-3.519023-0.03315-6.408192 3.358372-6.456642 7.581199" fill="#FFFFFF" /><path d="M1044.125105 399.238262a2.282265 2.282265 0 0 1-1.711061-0.765005l-43.332433-49.067421a2.210864 2.210864 0 0 1 0.226951-3.15182 2.295015 2.295015 0 0 1 3.200271 0.224401l41.583122 47.088608 57.528377-67.473441a2.289915 2.289915 0 0 1 3.19517-0.277952c0.956256 0.790505 1.086307 2.203214 0.283052 3.14417l-59.236887 69.480305c-0.433503 0.510003-1.218908 0.861906-1.736562 0.798155" fill="#1C573E" /><path d="M954.72152 399.245912a2.453116 2.453116 0 0 1-0.489603-0.051 2.312865 2.312865 0 0 1-1.665161-1.49686l-22.763999-66.802787a2.307765 2.307765 0 0 1 1.40506-2.927419 2.284815 2.284815 0 0 1 2.894269 1.428009l21.54509 63.220014 44.059189-46.879507a2.246565 2.246565 0 0 1 3.218121-0.0816 2.320515 2.320515 0 0 1 0.07395 3.248721l-46.627055 49.625875a2.274615 2.274615 0 0 1-1.649861 0.716554" fill="#1C573E" /><path d="M973.382543 937.299433c-10.100616 0-18.597272-3.544523-25.296166-10.567269-28.815189-30.199848-15.3511-114.516149-14.756947-118.086173 0.147901-0.912906 1.088857-1.47646 1.978813-1.389759a1.675361 1.675361 0 0 1 1.44076 1.904862c-0.147901 0.867006-13.80069 86.307865 13.892491 115.319405 6.624943 6.956446 15.29245 10.138866 25.635317 9.384061 1.045507 0.0306 1.769712 0.627304 1.843663 1.54786a1.683011 1.683011 0 0 1-1.598861 1.774812c-1.060807 0.081601-2.108864 0.112201-3.13652 0.112201" fill="#6A6A6A" /><path d="M1129.392563 521.646713a2.251665 2.251665 0 0 1-2.269515-2.009413c-5.627887-59.198637 11.449575-94.238417 26.775176-113.213091 16.715359-20.701035 34.624127-27.188278 35.371281-27.450929 1.190858-0.402903 2.486266 0.175951 2.917219 1.323458 0.433503 1.147508-0.170851 2.422516-1.351509 2.840719-0.178501 0.05355-17.620615 6.431142-33.532719 26.247322-14.713596 18.33462-31.112754 52.265142-25.640418 109.839418a2.236365 2.236365 0 0 1-2.060413 2.414866c-0.06375 0.00765-0.137701 0.00765-0.211652 0.00765M1182.35131 646.597531c-6.431142 0-12.836784-0.453903-19.150626-1.48411a2.228715 2.228715 0 0 1-1.785011-1.629461l-30.207498-111.308228a2.279715 2.279715 0 0 1 1.54786-2.797368 2.218515 2.218515 0 0 1 2.728518 1.58101l29.830095 109.898069c56.057017 8.262054 122.469651-29.868345 123.135206-30.258498a2.185364 2.185364 0 0 1 3.03452 0.851706c0.612004 1.086307 0.237152 2.473516-0.826206 3.09062C1288.148952 615.99733 1234.876553 646.597531 1182.35131 646.597531" fill="#1C573E" /><path d="M1089.08955 185.044511c-0.586504 0-1.122007-0.349352-1.272459-0.872106-0.178501-0.617104 0.242252-1.246958 0.951156-1.405059 0.357002-0.084151 8.787357-2.037463 7.981553-8.241654-0.232052-1.836012-1.269908-2.330715-2.843269-3.07532-1.670261-0.790505-3.745975-1.769712-4.523729-4.630831-3.197721-11.801477 11.727527-17.340113 11.883077-17.383463 0.637504-0.249902 1.428009 0.0306 1.711061 0.622204 0.275402 0.591604-0.04335 1.269908-0.716554 1.51216-0.527853 0.188701-12.989785 4.845032-10.317368 14.708496 0.510003 1.853862 1.703411 2.422516 3.215571 3.13652 1.695761 0.805805 3.825025 1.815612 4.212628 4.852682 0.856806 6.579043-6.14044 9.904265-9.962915 10.73812a1.190858 1.190858 0 0 1-0.318752 0.038251" fill="#DD936F" /><path d="M934.77529 705.227514l6.10984 61.271801 304.362341 7.5812c34.251824 0.846606 61.738454-27.869132 59.106837-61.761404-2.575517-33.219067-33.043116-57.275925-66.254533-52.326343L934.77529 705.232614z" fill="#FFC999" /><path d="M970.067521 803.994761l-66.642136-207.70651a8.412505 8.412505 0 0 0-7.879552-5.814038l-186.865222-2.527066c-5.798738-0.0714-9.929765 5.599837-8.047853 11.072172l69.572105 202.188273a8.389555 8.389555 0 0 0 7.56845 5.638087l183.937803 8.045303c5.839538 0.255002 10.136316-5.360135 8.358955-10.896221" fill="#7B8DAF" /><path d="M964.890987 806.93748l-64.780624-201.856771a10.049616 10.049616 0 0 0-9.440162-6.958996l-187.158474-2.524516c-4.018826-0.0561-6.874845 3.876025-5.566687 7.66025l69.773557 202.739077a9.19791 9.19791 0 0 0 8.287554 6.18124l178.87092 7.810701c6.987046 0.306002 12.143179-6.413292 10.013916-13.050985" fill="#253368" /><path d="M877.484065 617.833342c-2.402116 2.754018-1.53766 7.5863 1.930363 10.786571 3.478223 3.213021 8.244204 3.585323 10.646319 0.841506 2.412316-2.746368 1.54021-7.5863-1.927812-10.786571-3.478223-3.213021-8.236554-3.585323-10.64887-0.841506" fill="#ADC6FF" /><path d="M879.355777 619.465353c-1.203608 1.377009-0.765005 3.789325 0.963907 5.395835 1.741661 1.606511 4.115727 1.790112 5.321884 0.413103 1.203608-1.377009 0.775205-3.781675-0.963906-5.398385-1.741661-1.59631-4.115727-1.779912-5.321885-0.413103" fill="#253368" /><path d="M893.419119 771.181146c-10.585119-1.020007-16.159456-5.400935-15.154749-14.139843-12.742433-3.965276-11.316974-14.654946-11.316974-14.654946s-24.51841-0.374852-28.644337-10.74577c-1.60141-4.031576 1.50451-8.341105 5.870138-8.636906 52.530344-3.519023 89.982439-31.089803 89.982439-31.089804s-20.650035-30.028996-18.462121-43.880687c0.642604-4.105527 6.04864-5.426436 8.583356-2.119064 21.654742 28.300085 65.084076 50.49288 65.084076 50.492881s52.132541 48.368716-4.416629 70.29631c0 0-43.100382 17.008611-73.119178 14.856397-14.213793-1.020007-18.40602-10.378568-18.406021-10.378568" fill="#FFC999" /><path d="M862.834219 743.498165h-0.466653c-0.859356-0.01785-1.55041-0.785405-1.54276-1.718712 0.0153-0.918006 0.714005-1.662611 1.56826-1.66261h0.239702c2.412316 0 24.41386-0.249902 39.206506-9.14946a1.50196 1.50196 0 0 1 2.134364 0.642604c0.425853 0.818555 0.153001 1.846212-0.599254 2.295015-15.29755 9.20046-37.000742 9.593163-40.540165 9.593163M878.011919 758.798265h-0.229502c-0.928206-0.0102-1.665161-0.907806-1.657511-2.001763 0.01785-1.076107 0.762455-1.943113 1.680461-1.943113h0.099451c1.257158 0 16.74596-0.186151 31.520756-8.616506 0.828755-0.459003 1.828362-0.05865 2.236365 0.928206 0.395253 0.976656 0.04845 2.159864-0.780305 2.636717-15.2287 8.682807-30.709851 8.996459-32.869715 8.996459M895.591734 771.548348c-0.854256 0-1.56571-0.765005-1.614161-1.751861-0.04845-1.009807 0.637504-1.876812 1.53256-1.932913 5.393285-0.308552 20.247132-1.611611 24.199658-3.781675 0.805805-0.438603 1.764612-0.06375 2.157314 0.856806 0.382503 0.910356 0.04845 2.022163-0.752254 2.460766-5.255584 2.891719-23.391303 4.029026-25.444067 4.148877h-0.07905z" fill="#DD936F" /><path d="M1150.075749 278.714274h171.19537V50.990134H1150.073199z" fill="#FFE58F" /><path d="M1163.935089 255.491272h143.484339V64.780624H1163.935089z" fill="#FFC53D" /><path d="M1203.396597 321.648905h64.566423V301.009069H1203.399148z" fill="#253369" /><path d="M1193.961536 310.439031h83.428896V240.803176H1193.961536z" fill="#3BA000" /><path d="M1240.881843 262.998521H1195.514496a1.420359 1.420359 0 0 1-1.417809-1.42801c0-0.793055 0.632404-1.430559 1.417809-1.430559h45.369897c0.785405 0 1.420359 0.637504 1.420359 1.428009 0 0.790505-0.634954 1.428009-1.420359 1.42801M1240.881843 292.662865H1195.514496a1.420359 1.420359 0 0 1-1.417809-1.428009c0-0.790505 0.632404-1.428009 1.417809-1.42801h45.369897c0.785405 0 1.420359 0.637504 1.420359 1.42801 0 0.790505-0.634954 1.428009-1.420359 1.428009M1275.68702 277.829418h-45.377546a1.420359 1.420359 0 0 1-1.42036-1.42801c0-0.790505 0.632404-1.428009 1.42036-1.428009h45.377546c0.785405 0 1.417809 0.637504 1.41781 1.428009 0 0.790505-0.632404 1.428009-1.41781 1.42801" fill="#FFFFFF" /><path d="M1207.599025 196.481336H1263.844743V100.723109H1207.599025z" fill="#FFFFFF" /><path d="M828.740496 274.295095a11.260874 11.260874 0 0 1-11.265974-11.258324v-41.23377A11.265974 11.265974 0 0 1 828.740496 210.544678h41.21847A11.265974 11.265974 0 0 1 881.22494 221.803001v41.23377a11.260874 11.260874 0 0 1-11.265974 11.258324h-41.21847z" fill="#DFE3EF" /><path d="M192.985636 900.892845h103.122675V703.404252H192.985636z" fill="#3BA000" /><path d="M99.076172 878.8046h75.837496V725.497597H99.076172z" fill="#DFE3EF" /><path d="M315.088085 878.8046h75.837497V725.497597H315.088085z" fill="#DFE3EF" /></svg>